HIERARCHY
ROOT Hips
{
  OFFSET -178.033 92.7154 1206.49
  CHANNELS 6 Xposition Yposition Zposition Zrotation Xrotation Yrotation
  JOINT Spine
  {
    OFFSET 0 8 0
    CHANNELS 6 Xposition Yposition Zposition Zrotation Xrotation Yrotation
    JOINT Spine1
    {
      OFFSET 0 8 0
      CHANNELS 6 Xposition Yposition Zposition Zrotation Xrotation Yrotation
      JOINT Spine2
      {
        OFFSET 0 8 0
        CHANNELS 6 Xposition Yposition Zposition Zrotation Xrotation Yrotation
        JOINT Spine3
        {
          OFFSET 0 8 0
          CHANNELS 6 Xposition Yposition Zposition Zrotation Xrotation Yrotation
          JOINT Neck
          {
            OFFSET 0 17 0
            CHANNELS 6 Xposition Yposition Zposition Zrotation Xrotation Yrotation
            JOINT Head
            {
              OFFSET 0 10.8 0
              CHANNELS 6 Xposition Yposition Zposition Zrotation Xrotation Yrotation
              End Site
              {
                OFFSET 0 20.25 0
              }
            }
          }
          JOINT LeftShoulder
          {
            OFFSET 5 17 0
            CHANNELS 6 Xposition Yposition Zposition Zrotation Xrotation Yrotation
            JOINT LeftShoulder2
            {
              OFFSET 6.45 0 0
              CHANNELS 6 Xposition Yposition Zposition Zrotation Xrotation Yrotation
              JOINT LeftArm
              {
                OFFSET 6.45 0 0
                CHANNELS 6 Xposition Yposition Zposition Zrotation Xrotation Yrotation
                JOINT LeftForeArm
                {
                  OFFSET 0 -32.4 -2
                  CHANNELS 6 Xposition Yposition Zposition Zrotation Xrotation Yrotation
                  JOINT LeftHand
                  {
                    OFFSET 0 -25.65 2
                    CHANNELS 6 Xposition Yposition Zposition Zrotation Xrotation Yrotation
                    JOINT LeftHandThumb1
                    {
                      OFFSET -0.5 -1.5 2.65
                      CHANNELS 6 Xposition Yposition Zposition Zrotation Xrotation Yrotation
                      JOINT LeftHandThumb2
                      {
                        OFFSET 0 -3.8 3.7
                        CHANNELS 6 Xposition Yposition Zposition Zrotation Xrotation Yrotation
                        JOINT LeftHandThumb3
                        {
                          OFFSET 0 -3 2.7
                          CHANNELS 6 Xposition Yposition Zposition Zrotation Xrotation Yrotation
                          End Site
                          {
                            OFFSET 0 -2.3 1.8
                          }
                        }
                      }
                    }
                    JOINT LeftHandIndex
                    {
                      OFFSET 0 -1.9 1.6
                      CHANNELS 6 Xposition Yposition Zposition Zrotation Xrotation Yrotation
                      JOINT LeftHandIndex1
                      {
                        OFFSET 0 -8.3 1.9
                        CHANNELS 6 Xposition Yposition Zposition Zrotation Xrotation Yrotation
                        JOINT LeftHandIndex2
                        {
                          OFFSET 0 -4.5 0
                          CHANNELS 6 Xposition Yposition Zposition Zrotation Xrotation Yrotation
                          JOINT LeftHandIndex3
                          {
                            OFFSET 0 -3.4 0
                            CHANNELS 6 Xposition Yposition Zposition Zrotation Xrotation Yrotation
                            End Site
                            {
                              OFFSET 0 -2.6 0
                            }
                          }
                        }
                      }
                    }
                    JOINT LeftHandMiddle
                    {
                      OFFSET -0.25 -2.2 0.4
                      CHANNELS 6 Xposition Yposition Zposition Zrotation Xrotation Yrotation
                      JOINT LeftHandMiddle1
                      {
                        OFFSET 0 -8.3 1
                        CHANNELS 6 Xposition Yposition Zposition Zrotation Xrotation Yrotation
                        JOINT LeftHandMiddle2
                        {
                          OFFSET 0 -4.65 0
                          CHANNELS 6 Xposition Yposition Zposition Zrotation Xrotation Yrotation
                          JOINT LeftHandMiddle3
                          {
                            OFFSET 0 -3.3 0
                            CHANNELS 6 Xposition Yposition Zposition Zrotation Xrotation Yrotation
                            End Site
                            {
                              OFFSET 0 -2.7 0
                            }
                          }
                        }
                      }
                    }
                    JOINT LeftHandRing
                    {
                      OFFSET -0.5 -2.15 -0.8
                      CHANNELS 6 Xposition Yposition Zposition Zrotation Xrotation Yrotation
                      JOINT LeftHandRing1
                      {
                        OFFSET 0 -7.75 -0.2
                        CHANNELS 6 Xposition Yposition Zposition Zrotation Xrotation Yrotation
                        JOINT LeftHandRing2
                        {
                          OFFSET 0 -3.8 0
                          CHANNELS 6 Xposition Yposition Zposition Zrotation Xrotation Yrotation
                          JOINT LeftHandRing3
                          {
                            OFFSET 0 -3.4 0
                            CHANNELS 6 Xposition Yposition Zposition Zrotation Xrotation Yrotation
                            End Site
                            {
                              OFFSET 0 -2.6 0
                            }
                          }
                        }
                      }
                    }
                    JOINT LeftHandPinky
                    {
                      OFFSET -0.75 -1.75 -1.85
                      CHANNELS 6 Xposition Yposition Zposition Zrotation Xrotation Yrotation
                      JOINT LeftHandPinky1
                      {
                        OFFSET 0 -7.15 -1
                        CHANNELS 6 Xposition Yposition Zposition Zrotation Xrotation Yrotation
                        JOINT LeftHandPinky2
                        {
                          OFFSET 0 -3 0
                          CHANNELS 6 Xposition Yposition Zposition Zrotation Xrotation Yrotation
                          JOINT LeftHandPinky3
                          {
                            OFFSET 0 -2.35 0
                            CHANNELS 6 Xposition Yposition Zposition Zrotation Xrotation Yrotation
                            End Site
                            {
                              OFFSET 0 -2.1 0
                            }
                          }
                        }
                      }
                    }
                  }
                }
              }
            }
          }
          JOINT RightShoulder
          {
            OFFSET -5 17 0
            CHANNELS 6 Xposition Yposition Zposition Zrotation Xrotation Yrotation
            JOINT RightShoulder2
            {
              OFFSET -6.45 0 0
              CHANNELS 6 Xposition Yposition Zposition Zrotation Xrotation Yrotation
              JOINT RightArm
              {
                OFFSET -6.45 0 0
                CHANNELS 6 Xposition Yposition Zposition Zrotation Xrotation Yrotation
                JOINT RightForeArm
                {
                  OFFSET 0 -32.4 -2
                  CHANNELS 6 Xposition Yposition Zposition Zrotation Xrotation Yrotation
                  JOINT RightHand
                  {
                    OFFSET 0 -25.65 2
                    CHANNELS 6 Xposition Yposition Zposition Zrotation Xrotation Yrotation
                    JOINT RightHandThumb1
                    {
                      OFFSET 0.5 -1.5 2.65
                      CHANNELS 6 Xposition Yposition Zposition Zrotation Xrotation Yrotation
                      JOINT RightHandThumb2
                      {
                        OFFSET 0 -3.8 3.7
                        CHANNELS 6 Xposition Yposition Zposition Zrotation Xrotation Yrotation
                        JOINT RightHandThumb3
                        {
                          OFFSET 0 -3 2.7
                          CHANNELS 6 Xposition Yposition Zposition Zrotation Xrotation Yrotation
                          End Site
                          {
                            OFFSET 0 -2.3 1.8
                          }
                        }
                      }
                    }
                    JOINT RightHandIndex
                    {
                      OFFSET 0 -1.9 1.6
                      CHANNELS 6 Xposition Yposition Zposition Zrotation Xrotation Yrotation
                      JOINT RightHandIndex1
                      {
                        OFFSET 0 -8.3 1.9
                        CHANNELS 6 Xposition Yposition Zposition Zrotation Xrotation Yrotation
                        JOINT RightHandIndex2
                        {
                          OFFSET 0 -4.5 0
                          CHANNELS 6 Xposition Yposition Zposition Zrotation Xrotation Yrotation
                          JOINT RightHandIndex3
                          {
                            OFFSET 0 -3.4 0
                            CHANNELS 6 Xposition Yposition Zposition Zrotation Xrotation Yrotation
                            End Site
                            {
                              OFFSET 0 -2.6 0
                            }
                          }
                        }
                      }
                    }
                    JOINT RightHandMiddle
                    {
                      OFFSET 0.25 -2.2 0.4
                      CHANNELS 6 Xposition Yposition Zposition Zrotation Xrotation Yrotation
                      JOINT RightHandMiddle1
                      {
                        OFFSET 0 -8.3 1
                        CHANNELS 6 Xposition Yposition Zposition Zrotation Xrotation Yrotation
                        JOINT RightHandMiddle2
                        {
                          OFFSET 0 -4.65 0
                          CHANNELS 6 Xposition Yposition Zposition Zrotation Xrotation Yrotation
                          JOINT RightHandMiddle3
                          {
                            OFFSET 0 -3.3 0
                            CHANNELS 6 Xposition Yposition Zposition Zrotation Xrotation Yrotation
                            End Site
                            {
                              OFFSET 0 -2.7 0
                            }
                          }
                        }
                      }
                    }
                    JOINT RightHandRing
                    {
                      OFFSET 0.5 -2.15 -0.8
                      CHANNELS 6 Xposition Yposition Zposition Zrotation Xrotation Yrotation
                      JOINT RightHandRing1
                      {
                        OFFSET 0 -7.75 -0.2
                        CHANNELS 6 Xposition Yposition Zposition Zrotation Xrotation Yrotation
                        JOINT RightHandRing2
                        {
                          OFFSET 0 -3.8 0
                          CHANNELS 6 Xposition Yposition Zposition Zrotation Xrotation Yrotation
                          JOINT RightHandRing3
                          {
                            OFFSET 0 -3.4 0
                            CHANNELS 6 Xposition Yposition Zposition Zrotation Xrotation Yrotation
                            End Site
                            {
                              OFFSET 0 -2.6 0
                            }
                          }
                        }
                      }
                    }
                    JOINT RightHandPinky
                    {
                      OFFSET 0.75 -1.75 -1.85
                      CHANNELS 6 Xposition Yposition Zposition Zrotation Xrotation Yrotation
                      JOINT RightHandPinky1
                      {
                        OFFSET 0 -7.15 -1
                        CHANNELS 6 Xposition Yposition Zposition Zrotation Xrotation Yrotation
                        JOINT RightHandPinky2
                        {
                          OFFSET 0 -3 0
                          CHANNELS 6 Xposition Yposition Zposition Zrotation Xrotation Yrotation
                          JOINT RightHandPinky3
                          {
                            OFFSET 0 -2.35 0
                            CHANNELS 6 Xposition Yposition Zposition Zrotation Xrotation Yrotation
                            End Site
                            {
                              OFFSET 0 -2.1 0
                            }
                          }
                        }
                      }
                    }
                  }
                }
              }
            }
          }
        }
      }
    }
  }
  JOINT LeftUpLeg
  {
    OFFSET 8 0 0
    CHANNELS 6 Xposition Yposition Zposition Zrotation Xrotation Yrotation
    JOINT LeftLeg
    {
      OFFSET 0 -45 -1
      CHANNELS 6 Xposition Yposition Zposition Zrotation Xrotation Yrotation
      JOINT LeftFoot
      {
        OFFSET 0 -41 -2
        CHANNELS 6 Xposition Yposition Zposition Zrotation Xrotation Yrotation
        JOINT LeftToeBase
        {
          OFFSET 0 -7.5 12.5
          CHANNELS 6 Xposition Yposition Zposition Zrotation Xrotation Yrotation
          JOINT LeftFootToe
          {
            OFFSET 0 0 4
            CHANNELS 6 Xposition Yposition Zposition Zrotation Xrotation Yrotation
            End Site
            {
              OFFSET 0 0 0
            }
          }
        }
      }
    }
  }
  JOINT RightUpLeg
  {
    OFFSET -8 0 0
    CHANNELS 6 Xposition Yposition Zposition Zrotation Xrotation Yrotation
    JOINT RightLeg
    {
      OFFSET 0 -45 -1
      CHANNELS 6 Xposition Yposition Zposition Zrotation Xrotation Yrotation
      JOINT RightFoot
      {
        OFFSET 0 -41 -2
        CHANNELS 6 Xposition Yposition Zposition Zrotation Xrotation Yrotation
        JOINT RightToeBase
        {
          OFFSET 0 -7.5 12.5
          CHANNELS 6 Xposition Yposition Zposition Zrotation Xrotation Yrotation
          JOINT RightFootToe
          {
            OFFSET 0 0 4
            CHANNELS 6 Xposition Yposition Zposition Zrotation Xrotation Yrotation
            End Site
            {
              OFFSET 0 0 0
            }
          }
        }
      }
    }
  }
}
MOTION
Frames:	3
Frame Time:	0.0111111
-159.155 91.8439 1232.27 -2.97163 -1.45983 131.461 0 8 1.13687e-13 12.835 19.6754 -6.35971 -1.13687e-13 8 0 -2.83078 8.04104 6.98512 1.13687e-13 8 1.13687e-13 -1.29215 4.07256 3.44197 0 8 1.13687e-13 -1.28574 4.05433 3.42618 1.13687e-13 17 0 -0.0422762 0.841009 -2.2952 0 10.8 1.13687e-13 -0.04617 1.96437 -5.35761 5 17 -3.41061e-13 -14.1955 -0.0114992 1.31508 6.45 0 0 -0.951937 0.337829 2.62722 6.45 0 0 11.1723 9.5553 29.2943 -2.84217e-14 -32.4 -2 30.2817 -46.2712 -17.7137 0 -25.65 2 25.3209 -44.3673 7.81838 -0.5 -1.5 2.65 -47.8294 35.4394 61.4617 -2.84217e-14 -3.8 3.7 -0.0891796 16.8468 0.0112921 2.27374e-13 -3 2.7 -0.0057266 -0.183258 0.00811772 0 -1.9 1.6 6.36111e-15 2.38542e-15 3.18055e-15 -5.68434e-14 -8.3 1.9 -2.19198 -8.61864 -0.126621 0 -4.5 -2.84217e-14 -54.9609 -0.00612487 -0.000135715 0 -3.4 0 -38.0539 -0.00430008 -0.00781197 -0.25 -2.2 0.4 6.36111e-15 2.38542e-15 3.18055e-15 1.13687e-13 -8.3 1 -9.49857 -1.92365 0.122168 0 -4.65 -1.7053e-13 -25.7655 -0.00226007 -0.000730253 0 -3.3 -1.13687e-13 -90.0002 -3.73715e-14 2.0276e-14 -0.5 -2.15 -0.8 6.36111e-15 2.38542e-15 3.18055e-15 0 -7.75 -0.2 -37.2268 5.08537 3.30409 2.27374e-13 -3.8 0 -1.10123 7.95139e-16 -0 1.13687e-13 -3.4 -2.27374e-13 -90.0002 0.00281162 -1.43125e-14 -0.75 -1.75 -1.85 6.36111e-15 2.38542e-15 3.18055e-15 -5.68434e-14 -7.15 -1 -46.5197 7.40634 5.86944 0 -3 1.13687e-13 -6.3612e-15 4.77083e-15 0.00108933 0 -2.35 5.68434e-14 1.37565e-20 -7.95139e-16 0.000991262 -5 17 -2.27374e-13 -1.98596 0.175149 -1.76825 -6.45 0 1.13687e-13 -0.831385 -0.338217 -0.0735583 -6.45 0 0 -47.9685 -45.9638 22.9423 5.68434e-14 -32.4 -2 -27.4427 -32.7986 -29.7034 0 -25.65 2 6.45277 -8.39452 8.73772 0.5 -1.5 2.65 8.24279 42.1979 -75.8652 2.27374e-13 -3.8 3.7 0.692961 37.5823 0.0592187 -2.27374e-13 -3 2.7 0.0584409 25.4137 -0.0511932 4.61853e-14 -1.9 1.6 -6.75868e-15 0 9.93923e-17 3.55271e-15 -8.3 1.9 1.28123 8.74434 -0.0928012 -1.06581e-14 -4.5 0 0.110554 0 -8.13775e-16 -7.10543e-15 -3.4 1.13687e-13 0.109719 -9.54166e-15 1.47846e-15 0.25 -2.2 0.4 -6.75868e-15 0 9.93923e-17 3.55271e-15 -8.3 1 9.94484 2.9152 -0.838686 5.68434e-14 -4.65 0 50.8268 -0.0730566 0.0403406 1.13687e-13 -3.3 -2.27374e-13 35.1007 -0.0251475 0.0511751 0.5 -2.15 -0.8 -6.75868e-15 0 9.93923e-17 1.42109e-14 -7.75 -0.2 31.6605 6.37409 -3.68162 -5.68434e-14 -3.8 2.27374e-13 78.0104 0.0921457 -0.154779 1.13687e-13 -3.4 2.27374e-13 62.941 -0.144189 -0.237473 0.75 -1.75 -1.85 -6.75868e-15 0 9.93923e-17 6.39488e-14 -7.15 -1 58.4594 -3.68136 -2.13194 0 -3 0 38.3231 0.094087 -0.108921 1.13687e-13 -2.35 0 27.081 0.0211417 -0.084026 8 -1.42109e-14 1.13687e-13 -2.95949 -19.1975 -14.1372 0 -45 -1 -0.0608826 16.5107 0.280428 -2.27374e-13 -41 -2 -1.78368 -0.470943 24.0317 0 -7.5 12.5 -1.94126e-19 -3.97278e-16 -9.54166e-15 0 -3.46945e-18 4 2.45501 -7.53936 44.5307 -8 2.13163e-14 -1.13687e-13 -1.15902 -15.5847 10.3264 -1.13687e-13 -45 -1 -0.0507707 21.7037 -0.293215 0 -41 -2 2.61705 -9.53286 7.48059 0 -7.5 12.5 -0 -0.000983547 -0 1.13687e-13 1.73472e-18 4 -0.917595 8.16569 27.2552 
-159.036 91.9988 1231.87 -2.99964 -1.44122 130.851 1.13687e-13 8 0 12.6339 19.6444 -6.0853 -1.13687e-13 8 0 -2.88208 7.9958 7.05492 0 8 0 -1.31732 4.05117 3.47638 1.13687e-13 8 1.13687e-13 -1.31078 4.03299 3.46038 3.41061e-13 17 2.27374e-13 -0.0379454 0.977808 -2.26043 -2.27374e-13 10.8 -2.27374e-13 -0.0284487 2.28325 -5.27689 5 17 -2.27374e-13 -14.2185 -0.232068 1.44946 6.45 -1.13687e-13 -1.13687e-13 -0.963043 0.300135 2.58552 6.45 0 -2.27374e-13 11.1865 9.55857 29.2116 2.84217e-14 -32.4 -2 30.3209 -46.3117 -17.8448 0 -25.65 2 25.1097 -44.557 7.56394 -0.5 -1.5 2.65 -47.9131 35.2079 61.806 0 -3.8 3.7 -0.0891805 16.8511 0.0112924 1.98952e-13 -3 2.7 -0.0057266 -0.183258 0.00811772 -5.68434e-14 -1.9 1.6 3.18055e-15 1.59028e-15 3.18055e-15 0 -8.3 1.9 -2.3976 -8.59204 -0.141775 1.13687e-13 -4.5 0 -54.9817 -0.00612487 -0.000135715 0 -3.4 2.84217e-14 -38.0697 -0.00430008 -0.00781197 -0.25 -2.2 0.4 3.18055e-15 1.59028e-15 3.18055e-15 5.68434e-14 -8.3 1 -9.63536 -1.87274 0.120488 0 -4.65 -2.27374e-13 -25.7309 -0.00226007 -0.000730253 0 -3.3 -1.13687e-13 -90.0002 1.82882e-14 -2.3059e-14 -0.5 -2.15 -0.8 3.18055e-15 1.59028e-15 3.18055e-15 -1.13687e-13 -7.75 -0.2 -37.6411 5.05926 3.33591 2.27374e-13 -3.8 5.68434e-14 -1.10123 7.95139e-16 3.18055e-15 3.41061e-13 -3.4 -2.27374e-13 -90.0002 0.00281162 -9.62118e-14 -0.75 -1.75 -1.85 3.18055e-15 1.59028e-15 3.18055e-15 5.68434e-14 -7.15 -1 -46.9569 7.31157 5.90823 2.27374e-13 -3 1.13687e-13 -7.55874e-20 3.97569e-15 0.00108933 2.27374e-13 -2.35 5.68434e-14 2.7513e-20 -1.59028e-15 0.000991262 -5 17 -1.13687e-13 -2.12426 0.234044 -1.65721 -6.45 0 1.13687e-13 -0.815881 -0.353021 -0.0787066 -6.45 5.68434e-14 1.13687e-13 -48.6527 -46.4647 23.4813 -5.68434e-14 -32.4 -2 -27.3058 -32.7024 -29.2918 0 -25.65 2 5.26317 -8.98819 9.22693 0.5 -1.5 2.65 10.5794 42.5948 -78.5683 2.27374e-13 -3.8 3.7 0.692273 38.1644 0.0596885 -2.27374e-13 -3 2.7 0.0584409 25.4137 -0.0511932 7.28306e-14 -1.9 1.6 -3.926e-15 0 2.55935e-15 -3.55271e-15 -8.3 1.9 1.08511 8.06921 -0.0829401 -3.55271e-15 -4.5 0 0.11054 -6.36111e-15 3.97569e-16 3.55271e-15 -3.4 0 0.109705 -6.36111e-15 -7.05686e-15 0.25 -2.2 0.4 -3.926e-15 0 2.55935e-15 1.77636e-15 -8.3 1 10.422 2.41917 -0.849294 2.84217e-14 -4.65 0 49.9719 -0.0807362 0.0315805 0 -3.3 -1.13687e-13 34.5249 -0.0330132 0.0487849 0.5 -2.15 -0.8 -3.926e-15 0 2.55935e-15 5.32907e-15 -7.75 -0.2 32.379 4.94899 -3.39176 5.68434e-14 -3.8 1.13687e-13 78.9153 0.0754187 -0.0930652 1.13687e-13 -3.4 2.27374e-13 64.304 -0.0780245 -0.172072 0.75 -1.75 -1.85 -3.926e-15 0 2.55935e-15 5.86198e-14 -7.15 -1 57.5861 -4.54175 -1.64687 0 -3 0 38.686 0.0566573 -0.0592571 -1.13687e-13 -2.35 -1.13687e-13 27.2983 0.0142007 -0.0471317 8 -1.42109e-14 -1.13687e-13 -2.84508 -18.5053 -14.259 0 -45 -1 -0.0424695 15.4461 0.222255 0 -41 -2 -1.77424 -0.128225 24.441 0 -7.5 12.5 9.70628e-20 -3.97375e-16 3.18055e-15 1.13687e-13 -3.46945e-18 4 2.6185 -7.68538 45.0939 -8 2.84217e-14 -3.41061e-13 -1.40674 -14.9489 9.46161 -1.13687e-13 -45 -1 -0.0356401 20.6646 -0.2805 1.13687e-13 -41 -2 2.55288 -9.14603 7.81888 0 -7.5 12.5 -1.15262e-19 -0.000983547 -9.54166e-15 0 0 4 -0.869618 7.81512 27.2161 
-158.968 92.1214 1231.56 -2.99597 -1.43309 130.455 1.13687e-13 8 0 12.473 19.5941 -5.91278 -1.13687e-13 8 -1.13687e-13 -2.92248 7.94579 7.10931 -1.13687e-13 8 0 -1.33741 4.02711 3.50332 0 8 0 -1.33079 4.00902 3.48717 0 17 0 -0.00643472 1.12642 -2.24459 -1.13687e-13 10.8 0 0.0537869 2.62806 -5.24135 5 17 -2.27374e-13 -14.2056 -0.42856 1.50172 6.45 -1.13687e-13 -1.13687e-13 -0.966825 0.277493 2.55001 6.45 0 0 11.1973 9.56181 29.1289 -2.84217e-14 -32.4 -2 30.2671 -46.3351 -18.0284 0 -25.65 2 24.8928 -44.745 7.30654 -0.5 -1.5 2.65 -47.9974 34.9264 62.1011 -5.68434e-14 -3.8 3.7 -0.0891805 16.8515 0.0112924 2.27374e-13 -3 2.7 -0.0057266 -0.183258 0.00811772 0 -1.9 1.6 6.36111e-15 1.59028e-15 3.18055e-15 -5.68434e-14 -8.3 1.9 -2.57201 -8.56099 -0.154355 1.13687e-13 -4.5 0 -55.0278 -0.00612487 -0.000135715 0 -3.4 0 -38.1046 -0.00430008 -0.00781197 -0.25 -2.2 0.4 6.36111e-15 1.59028e-15 3.18055e-15 1.7053e-13 -8.3 1 -9.74885 -1.82642 0.119311 0 -4.65 -2.27374e-13 -25.7059 -0.00226007 -0.000730253 0 -3.3 -1.7053e-13 -90.0002 -3.89618e-14 3.77691e-14 -0.5 -2.15 -0.8 6.36111e-15 1.59028e-15 3.18055e-15 0 -7.75 -0.2 -38.0694 5.02689 3.36751 2.27374e-13 -3.8 0 -1.10123 -7.95139e-16 4.77083e-15 0 -3.4 -2.84217e-13 -90.0002 0.00281162 -1.11319e-14 -0.75 -1.75 -1.85 6.36111e-15 1.59028e-15 3.18055e-15 0 -7.15 -1 -47.3964 7.19572 5.93797 0 -3 1.7053e-13 3.18049e-15 3.18055e-15 0.00108933 -2.27374e-13 -2.35 0 9.54168e-15 -7.95139e-16 0.000991262 -5 17 -3.41061e-13 -2.2001 0.272083 -1.58462 -6.45 0 1.13687e-13 -0.803893 -0.368389 -0.0896309 -6.45 -5.68434e-14 1.13687e-13 -49.2342 -46.8309 23.8427 0 -32.4 -2 -26.9497 -32.6776 -29.0543 2.84217e-14 -25.65 2 4.37627 -9.60371 9.63829 0.5 -1.5 2.65 12.2671 43.0428 -80.5336 2.27374e-13 -3.8 3.7 0.691912 38.4928 0.0599596 -2.27374e-13 -3 2.7 0.0584409 25.4137 -0.0511932 4.61853e-14 -1.9 1.6 4.07509e-15 -1.59028e-14 -6.28657e-15 3.55271e-15 -8.3 1.9 0.905022 7.43443 -0.0770306 0 -4.5 0 0.110519 9.54166e-15 -4.87022e-15 7.10543e-15 -3.4 1.13687e-13 0.109686 -3.18055e-15 -1.19271e-15 0.25 -2.2 0.4 4.07509e-15 -1.59028e-14 -6.28657e-15 -3.55271e-15 -8.3 1 10.9669 2.02833 -0.868496 8.52651e-14 -4.65 1.13687e-13 49.0352 -0.0696824 0.0120608 0 -3.3 -1.13687e-13 33.8944 -0.0313308 0.0332363 0.5 -2.15 -0.8 4.07509e-15 -1.59028e-14 -6.28657e-15 2.4869e-14 -7.75 -0.2 33.1938 3.5903 -3.12041 0 -3.8 2.27374e-13 79.6438 0.0463032 -0.0419211 1.13687e-13 -3.4 2.27374e-13 65.4214 -0.0292702 -0.0959509 0.75 -1.75 -1.85 4.07509e-15 -1.59028e-14 -6.28657e-15 5.68434e-14 -7.15 -1 56.7663 -5.24217 -1.25187 1.13687e-13 -3 0 38.6565 0.0158447 -0.0250824 1.13687e-13 -2.35 0 27.2807 0.00161389 -0.0176745 8 -1.42109e-14 0 -2.75879 -17.915 -14.412 0 -45 -1 -0.0266352 14.6154 0.16263 -1.13687e-13 -41 -2 -1.75203 0.108865 24.6389 0 -7.5 12.5 -2.42657e-20 -3.97569e-16 3.18055e-15 1.13687e-13 0 4 2.80402 -7.83287 45.6981 -8 0 -2.27374e-13 -1.60573 -14.3839 8.78572 0 -45 -1 -0.0203436 19.771 -0.2553 -1.13687e-13 -41 -2 2.52576 -8.81676 8.17306 -1.13687e-13 -7.5 12.5 6.06638e-21 -0.000983547 9.54166e-15 0 1.73472e-18 4 -0.850128 7.46702 27.2706 
